<?xml version="1.0" encoding="iso-8859-1"?>
<!-- Generator: Adobe Illustrator 18.1.1, SVG Export Plug-In . SVG Version: 6.00 Build 0)  -->
<svg version="1.1" id="Layer_1" xmlns="http://www.w3.org/2000/svg" xmlns:xlink="http://www.w3.org/1999/xlink" x="0px" y="0px"
	 viewBox="0 0 50 50" style="enable-background:new 0 0 50 50;" xml:space="preserve">
<g>
	<path style="fill:#FFFFFF;" d="M25,49c13.256,0,24-10.744,24-24c0-13.254-10.744-24-24-24c-13.254,0-24,10.746-24,24
		C1,38.257,11.746,49,25,49z M25,7.001c9.926,0,18,8.074,18,18s-8.074,18-18,18s-18-8.074-18-18S15.074,7.001,25,7.001z"/>
	<path style="fill:#FFFFFF;" d="M22,22.001l-6,12l12-6l6-12L22,22.001z M25,27.001c-1.104,0-2-0.896-2-2s0.896-2,2-2s2,0.896,2,2
		S26.105,27.001,25,27.001z"/>
</g>
</svg>
