<?xml version="1.0" encoding="iso-8859-1"?>
<!-- Generator: Adobe Illustrator 18.1.1, SVG Export Plug-In . SVG Version: 6.00 Build 0)  -->
<svg version="1.1" id="Layer_1" xmlns="http://www.w3.org/2000/svg" xmlns:xlink="http://www.w3.org/1999/xlink" x="0px" y="0px"
	 viewBox="0 0 50 50" style="enable-background:new 0 0 50 50;" xml:space="preserve">
<g>
	<circle cx="45.573" cy="3.875" r="3"/>
	<rect x="44.573" y="3.625" width="2" height="42"/>
	<rect x="41.573" y="44.875" width="8" height="4"/>
	<path d="M35.589,5.94l0.658,7.892c0.082,0.991,0.082,2.665,0,3.655l-0.658,7.893L4.668,20.963
		c-0.208-0.03-0.535-0.358-0.565-0.565l-0.434-3.042c-0.13-0.903-0.13-2.488,0-3.394l0.434-3.038
		c0.03-0.209,0.357-0.537,0.566-0.567L35.589,5.94 M35.706,3.923c-0.092,0-0.185,0.007-0.279,0.02L4.386,8.377
		C3.297,8.533,2.28,9.551,2.123,10.64L1.69,13.68c-0.156,1.089-0.156,2.871,0,3.96l0.434,3.04c0.156,1.089,1.174,2.107,2.263,2.263
		l31.041,4.434c0.094,0.013,0.188,0.02,0.279,0.02c0.97,0,1.783-0.729,1.866-1.73l0.668-8.014c0.091-1.096,0.091-2.89,0-3.986
		l-0.668-8.014C37.49,4.652,36.676,3.923,35.706,3.923L35.706,3.923z"/>
	<polygon points="36.948,6.525 36.948,9.354 43.254,15.66 36.948,21.966 36.948,24.795 46.082,15.66 	"/>
	<path d="M12.834,23.239c-0.803-2.074-1.262-4.428-1.262-6.927c0-3.082,0.693-5.947,1.878-8.333l-2.327,0.305
		c-0.989,2.392-1.551,5.125-1.551,8.029c0,2.348,0.369,4.582,1.032,6.616L12.834,23.239z"/>
	<path d="M22.6,24.445c-1.126-2.346-1.784-5.135-1.784-8.132c0-3.593,0.941-6.891,2.507-9.479L20.89,7.151
		c-1.309,2.647-2.074,5.785-2.074,9.161c0,2.818,0.535,5.469,1.47,7.81L22.6,24.445z"/>
	<path d="M33.335,25.801c-1.569-2.59-2.513-5.891-2.513-9.488c0-4.228,1.309-8.04,3.399-10.774L31.59,5.882
		c-1.729,2.883-2.767,6.496-2.767,10.43c0,3.371,0.764,6.504,2.067,9.147L33.335,25.801z"/>
</g>
</svg>
